<?xml version="1.0" standalone="no"?>
<!DOCTYPE svg PUBLIC "-//W3C//DTD SVG 20010904//EN"
 "http://www.w3.org/TR/2001/REC-SVG-20010904/DTD/svg10.dtd">
<svg version="1.0" xmlns="http://www.w3.org/2000/svg"
 width="512.000000pt" height="512.000000pt" viewBox="0 0 512.000000 512.000000"
 preserveAspectRatio="xMidYMid meet">
<metadata>
Created by potrace 1.11, written by Peter Selinger 2001-2013
</metadata>
<g transform="translate(0.000000,512.000000) scale(0.100000,-0.100000)"
fill="#000000" stroke="none">
<path d="M1118 5104 c-198 -48 -363 -223 -427 -454 -31 -109 -43 -272 -31
-410 12 -130 15 -152 75 -455 64 -320 82 -571 50 -667 -35 -102 -192 -247
-382 -354 l-83 -46 0 -158 0 -158 83 -46 c190 -107 347 -252 382 -354 33 -97
14 -348 -51 -672 -63 -316 -74 -396 -74 -555 0 -190 22 -296 91 -435 43 -86
64 -117 124 -175 39 -39 98 -85 132 -102 108 -58 148 -63 551 -63 l362 0 0
319 0 318 -137 6 c-192 7 -293 43 -371 131 -55 63 -66 98 -65 221 1 84 9 153
37 293 45 225 86 542 86 660 0 193 -62 321 -243 509 l-99 102 104 103 c177
176 238 295 238 470 0 77 -36 331 -84 592 -32 173 -50 354 -42 425 13 111 82
208 185 261 65 33 185 60 294 67 l97 6 0 319 0 318 -372 -1 c-281 0 -387 -4
-430 -15z"/>
<path d="M3200 4802 l0 -319 98 -6 c108 -7 228 -34 293 -67 63 -33 134 -104
160 -163 36 -79 31 -219 -15 -450 -69 -345 -101 -671 -76 -778 29 -128 122
-266 262 -392 l73 -65 -100 -104 c-184 -189 -245 -317 -245 -510 0 -118 41
-435 86 -660 28 -140 36 -209 37 -293 1 -125 -10 -160 -69 -225 -79 -87 -174
-120 -366 -127 l-138 -6 0 -318 0 -319 363 0 c402 0 442 5 550 63 34 17 93 63
133 102 60 58 80 87 123 176 69 141 91 246 91 434 0 159 -11 239 -74 555 -65
324 -84 575 -51 672 35 102 192 247 383 354 l82 46 0 158 0 158 -82 46 c-178
100 -314 220 -369 326 -48 91 -35 341 36 695 59 298 63 323 75 455 12 138 0
301 -31 410 -64 233 -229 407 -431 455 -50 12 -142 15 -430 15 l-368 0 0 -318z"/>
</g>
</svg>
